<?xml version="1.0" standalone="no"?>
<!DOCTYPE svg PUBLIC "-//W3C//DTD SVG 20010904//EN"
 "http://www.w3.org/TR/2001/REC-SVG-20010904/DTD/svg10.dtd">
<svg version="1.0" xmlns="http://www.w3.org/2000/svg"
 width="512.000000pt" height="512.000000pt" viewBox="0 0 512.000000 512.000000"
 preserveAspectRatio="xMidYMid meet">

<g transform="translate(0.000000,512.000000) scale(0.100000,-0.100000)"
fill="#000000" stroke="none">
<path d="M2050 4629 c-68 -50 -259 -188 -424 -307 -166 -118 -368 -267 -451
-332 -148 -115 -576 -433 -753 -560 -50 -36 -91 -67 -91 -70 -1 -4 35 -24 80
-45 l81 -40 -46 -38 c-25 -22 -46 -43 -46 -47 0 -4 36 -29 79 -54 l79 -47 -23
-59 c-66 -169 -104 -368 -105 -545 0 -147 43 -342 100 -455 75 -149 183 -276
311 -366 44 -30 79 -57 79 -59 0 -2 -38 -109 -84 -237 -102 -284 -147 -422
-181 -553 -14 -55 -33 -124 -41 -153 -9 -30 -14 -55 -12 -57 2 -2 32 2 66 9
34 7 62 9 62 4 0 -5 -7 -41 -16 -79 -9 -39 -14 -72 -12 -74 2 -3 62 5 133 16
428 67 861 127 867 121 4 -4 19 -66 33 -137 15 -72 30 -134 34 -138 5 -5 102
92 217 215 115 122 227 241 249 264 l40 42 80 -19 c164 -39 520 -116 524 -113
2 2 -2 33 -9 69 -7 36 -11 67 -9 69 2 2 76 -23 164 -55 169 -63 402 -120 567
-140 l97 -12 -15 -28 c-7 -15 -14 -30 -14 -34 0 -3 63 -5 140 -5 l140 0 37
-49 c21 -27 63 -81 93 -120 30 -39 57 -71 60 -71 3 0 37 62 75 137 l70 137 95
24 c52 13 98 27 102 31 5 4 -30 50 -77 103 l-85 97 40 57 c45 64 80 164 80
228 0 39 -30 195 -43 226 -5 10 7 24 39 45 114 76 183 246 140 348 -12 30 -60
79 -101 102 -17 11 -17 13 0 68 14 45 17 78 13 159 -9 182 -79 320 -248 493
l-98 100 -57 195 c-31 107 -59 203 -62 212 -4 13 6 20 44 32 75 23 572 202
578 208 3 3 -120 128 -273 277 l-279 272 -6 177 c-11 289 -26 585 -30 589 -3
2 -17 -3 -33 -11 -16 -9 -132 -65 -259 -127 l-230 -111 -80 1 c-66 1 -89 -3
-135 -24 -30 -14 -66 -39 -80 -55 l-25 -30 -95 29 c-179 55 -516 151 -528 151
-8 0 -11 -7 -8 -17 8 -32 28 -164 25 -168 -2 -2 -96 93 -209 211 -113 117
-207 214 -210 214 -3 0 -61 -41 -130 -91z m351 -229 l224 -229 27 -118 c37
-163 39 -153 -27 -135 -52 15 -63 24 -204 176 -82 89 -185 196 -228 238 l-78
77 -110 -82 c-61 -45 -203 -149 -315 -231 -456 -333 -522 -381 -695 -508 -99
-72 -182 -133 -184 -135 -2 -1 1 -9 8 -17 9 -11 -3 -28 -65 -87 -41 -41 -79
-74 -82 -73 -22 1 -203 96 -200 103 2 5 127 101 279 213 152 112 323 237 380
279 57 42 313 230 567 418 255 187 467 341 472 341 4 0 108 -103 231 -230z
m1554 -75 c-3 -91 -7 -238 -10 -327 l-5 -163 255 -220 c139 -121 254 -222 254
-225 1 -6 -466 -150 -484 -150 -5 0 -23 32 -40 72 -16 39 -31 75 -33 78 -1 4
41 19 95 35 54 15 104 31 112 35 9 5 -16 29 -82 79 l-96 71 1 98 c1 210 -78
393 -245 568 l-39 42 104 57 c56 32 126 70 153 86 28 16 54 29 58 29 4 0 5
-74 2 -165z m-946 -61 l194 -58 -7 -75 c-3 -41 -8 -76 -9 -78 -2 -2 -67 19
-145 46 -86 30 -142 45 -142 38 0 -7 20 -88 44 -182 24 -93 42 -171 41 -173
-2 -2 -43 17 -91 41 l-89 45 -58 233 c-32 129 -57 239 -57 246 0 13 8 11 319
-83z m525 49 c96 -63 188 -169 244 -280 56 -110 77 -189 76 -288 -1 -78 -5
-99 -32 -158 l-31 -68 65 -157 c151 -361 199 -521 166 -554 -23 -23 -58 1 -91
64 -38 72 -61 101 -61 78 0 -8 4 -31 9 -50 23 -90 23 -92 3 -81 -14 7 -24 34
-37 103 -27 139 -101 402 -132 466 l-28 57 -70 6 c-92 8 -173 49 -241 121 -91
96 -119 210 -111 451 7 214 28 279 102 313 43 19 121 9 169 -23z m-1304 -325
c0 -5 -28 -8 -62 -8 -63 0 -291 -24 -332 -35 -29 -8 20 32 153 123 l106 72 67
-72 c37 -40 68 -76 68 -80z m260 -102 c220 -43 483 -163 627 -284 140 -119
261 -300 298 -447 8 -32 15 -93 15 -133 l0 -74 -31 6 c-17 3 -44 6 -60 6 l-29
0 0 66 c0 78 -17 119 -76 183 -43 46 -124 162 -124 177 0 10 -41 54 -51 54 -4
0 -1 -16 7 -35 7 -19 14 -45 14 -58 0 -16 17 -42 50 -73 52 -51 59 -64 36 -64
-7 0 -19 -7 -26 -15 -11 -13 -8 -15 18 -15 16 0 35 -7 42 -15 7 -8 18 -15 25
-15 12 0 25 -21 25 -41 0 -5 -14 -9 -31 -9 -28 0 -29 -1 -15 -16 19 -18 21
-65 4 -82 -7 -7 -22 -12 -35 -12 -13 0 -23 -6 -23 -14 0 -8 -14 -17 -32 -21
-131 -26 -281 -98 -351 -167 -93 -92 -127 -210 -127 -440 0 -139 -1 -148 -19
-148 -11 0 -26 -3 -35 -6 -10 -4 -16 -1 -16 10 0 12 -7 14 -30 10 -23 -5 -31
-2 -36 11 -10 25 8 48 43 57 17 4 36 15 43 23 15 18 9 19 -25 3 -19 -9 -28 -9
-37 0 -8 8 -15 8 -24 1 -7 -6 -23 -9 -36 -7 -17 2 -24 11 -26 31 -2 19 -8 27
-17 24 -35 -14 -47 49 -15 78 11 10 22 26 25 36 3 10 22 28 41 39 19 12 39 31
45 42 10 19 10 19 -15 3 -16 -11 -35 -15 -51 -11 -18 5 -25 2 -25 -8 0 -20
-68 -42 -83 -27 -7 7 -12 17 -12 24 0 7 -18 13 -41 15 -54 4 -82 32 -68 69 13
37 37 50 66 36 33 -16 88 -24 88 -13 0 5 -11 12 -25 16 -29 7 -50 38 -39 57 4
6 16 22 27 35 18 20 19 22 3 22 -9 0 -27 -10 -40 -22 -25 -26 -69 -33 -98 -17
-15 8 -19 18 -16 41 4 24 0 31 -19 39 -15 5 -23 17 -23 32 0 27 44 74 55 58 3
-6 22 -11 41 -11 l35 0 -21 28 c-27 34 -76 47 -90 23 -9 -14 -12 -13 -28 8 -9
13 -34 41 -56 61 l-39 38 51 7 c28 4 59 13 69 21 17 12 16 13 -10 14 -36 0
-67 17 -67 35 0 22 -18 18 -25 -5 -6 -19 -8 -19 -36 -5 -16 9 -29 20 -29 26 0
6 -5 7 -11 3 -6 -3 -9 -19 -5 -35 7 -35 -3 -37 -33 -5 -14 15 -29 22 -39 19
-8 -4 -20 1 -28 11 -18 25 0 60 43 86 20 12 33 27 33 39 0 11 9 25 20 31 11 6
20 17 20 25 0 10 10 15 30 15 43 0 37 18 -7 25 -21 3 -46 10 -55 16 -28 15
-31 11 -13 -17 39 -60 -19 -73 -79 -17 l-39 37 24 19 c13 11 32 25 42 32 15
10 17 17 9 32 -10 17 -11 17 -18 0 -13 -35 -50 -39 -91 -11 -34 23 -38 30 -39
70 -1 32 -8 49 -24 62 -13 11 -19 23 -15 33 7 18 77 49 110 49 18 1 18 2 3 10
-9 6 -32 9 -50 8 -52 -5 -41 22 24 55 55 28 57 29 89 13 28 -14 34 -14 48 -2
29 26 70 37 94 25 12 -7 25 -16 29 -22 3 -6 17 -1 33 12 19 14 42 21 73 21 34
0 43 3 35 11 -17 17 -131 22 -198 9 -33 -6 -89 -12 -125 -14 -77 -2 -143 -36
-191 -96 -26 -33 -51 -45 -182 -95 -366 -139 -513 -238 -659 -444 -140 -197
-198 -349 -214 -567 -31 -425 306 -789 856 -925 116 -28 375 -36 515 -16 55 8
101 14 102 13 1 -1 3 -37 4 -81 l2 -79 -29 -8 c-72 -19 -334 -40 -444 -35
-182 8 -411 62 -539 127 -177 89 -324 219 -435 384 -75 112 -120 225 -152 382
-23 112 -26 144 -21 249 15 305 133 552 381 801 231 230 448 346 831 444 83
21 193 43 245 49 52 6 111 13 130 15 68 8 326 -4 400 -18z m-846 -356 c30 -12
59 -27 65 -34 14 -17 25 -98 17 -129 -7 -29 -50 -44 -72 -26 -8 7 -32 15 -52
18 -31 5 -41 13 -60 50 -19 36 -20 46 -10 59 8 10 -1 7 -25 -7 -21 -13 -40
-21 -43 -19 -4 4 113 108 122 108 2 0 28 -9 58 -20z m2038 -222 c6 -13 24 -58
38 -101 l26 -77 -23 -117 c-12 -64 -24 -117 -25 -119 -2 -1 -41 8 -88 20 -83
23 -85 24 -82 52 6 70 44 310 51 323 4 8 25 20 47 27 21 6 40 12 41 13 1 1 8
-9 15 -21z m-2177 -25 c19 -9 35 -22 35 -28 0 -7 12 -30 26 -51 l26 -39 -47
-43 c-26 -23 -55 -42 -64 -40 -28 4 -73 -12 -118 -43 l-44 -31 -55 27 c-30 14
-54 30 -54 33 0 4 16 43 35 87 l34 80 73 31 c86 38 105 40 153 17z m-377 -63
c23 -10 42 -25 42 -33 0 -19 -69 -171 -75 -165 -3 3 2 26 11 52 9 26 14 49 11
52 -5 6 -87 -113 -87 -127 0 -13 -63 -11 -97 2 -15 7 -38 11 -51 10 -20 -1
-22 3 -17 22 23 76 147 207 195 207 14 0 44 -9 68 -20z m455 -192 c-6 -12 -83
-10 -83 2 0 5 17 29 38 51 l37 42 6 -44 c4 -24 5 -47 2 -51z m297 45 c37 -35
40 -41 34 -76 -4 -24 -10 -34 -15 -26 -4 7 -5 18 -2 25 2 6 0 15 -6 19 -16 9
-14 -37 5 -90 8 -26 14 -55 12 -66 -4 -24 -170 -124 -191 -116 -10 4 -17 32
-21 86 -7 74 -5 85 15 119 37 62 112 162 121 162 5 0 27 -17 48 -37z m-290
-131 c0 -14 -23 -32 -41 -32 -28 0 -33 19 -7 29 29 12 48 13 48 3z m-155 -37
c-16 -14 -35 -25 -41 -25 -21 0 -104 -72 -96 -84 4 -6 9 -40 12 -75 5 -66 6
-67 64 -91 24 -9 27 -13 15 -21 -27 -17 -49 -9 -74 30 -17 25 -28 59 -32 95
-6 60 -29 92 -61 84 -11 -3 -37 -2 -58 2 -36 7 -37 8 -9 10 66 4 79 8 95 27
11 15 24 19 46 16 22 -3 49 5 90 26 72 36 89 39 49 6z m2045 -25 c153 -25 281
-67 420 -137 149 -75 218 -122 309 -208 133 -127 207 -258 221 -392 11 -103
-3 -180 -49 -271 -76 -150 -448 -426 -726 -538 -75 -30 -98 -35 -169 -35 -102
0 -160 11 -260 50 -110 42 -200 98 -284 177 -61 56 -80 82 -117 158 -87 182
-135 440 -135 732 0 95 5 156 15 190 20 69 81 153 139 191 50 34 173 78 260
92 92 16 256 12 376 -9z m-1389 -17 c13 -33 57 -246 52 -252 -1 -2 -11 3 -20
11 -10 8 -43 27 -73 41 -86 40 -91 47 -79 93 32 114 95 170 120 107z m-1130
-85 c43 -12 41 -21 -13 -59 -23 -17 -32 -18 -43 -9 -18 15 -19 52 -3 68 15 15
12 15 59 0z m169 -70 c52 -44 51 -60 -6 -77 -35 -11 -54 -11 -82 -3 -20 7 -46
13 -57 14 -11 2 -20 9 -20 16 0 17 85 81 108 82 10 0 36 -15 57 -32z m711 -79
c18 6 34 9 37 7 8 -8 -77 -46 -103 -46 -25 0 -25 1 -9 25 13 20 20 23 30 14
10 -8 22 -8 45 0z m-1067 -139 c16 -25 30 -46 31 -48 2 -2 42 4 91 12 95 17
114 16 62 -3 -18 -7 -48 -19 -66 -27 -18 -8 -39 -14 -47 -14 -11 0 -15 -11
-15 -37 0 -45 -24 -120 -34 -105 -3 6 -4 42 -2 80 5 74 0 87 -50 137 -20 20
-24 34 -23 82 l0 58 13 -45 c6 -25 25 -65 40 -90z m949 115 c8 -20 -7 -27 -39
-19 -26 7 -26 8 -9 20 24 18 41 18 48 -1z m354 1 c0 -7 13 -42 30 -77 51 -106
51 -104 -3 -138 l-48 -29 -45 23 c-60 30 -91 60 -91 87 0 14 24 46 64 85 63
61 93 77 93 49z m-639 -42 c-10 -10 -28 6 -28 24 0 15 1 15 17 -1 9 -9 14 -19
11 -23z m-342 -43 c-16 -17 -35 -27 -43 -24 -16 6 -14 9 24 34 42 27 50 22 19
-10z m144 -53 c0 -27 -4 -38 -15 -38 -12 0 -15 -17 -15 -93 l0 -92 -56 -34
c-49 -29 -62 -33 -101 -27 -28 4 -42 2 -38 -4 3 -6 16 -10 29 -10 12 0 31 -7
42 -15 18 -15 16 -15 -26 -10 -50 7 -141 33 -153 45 -15 13 12 122 36 148 58
63 226 169 269 169 26 0 28 -3 28 -39z m558 -82 c32 -17 68 -76 59 -99 -3 -8
-34 -31 -70 -51 -69 -39 -79 -38 -165 2 -47 22 -52 38 -39 119 18 104 22 107
112 72 42 -16 88 -35 103 -43z m545 -42 c73 -37 83 -64 42 -112 -23 -27 -31
-30 -117 -37 -88 -6 -93 -6 -110 15 -17 21 -17 24 -2 49 59 93 118 120 187 85z
m-824 -41 c6 -16 27 -50 47 -78 19 -27 39 -57 44 -65 8 -13 11 -13 19 -1 7 11
11 10 20 -7 18 -33 13 -56 -19 -87 -29 -27 -31 -28 -82 -17 -29 6 -73 14 -98
18 -24 3 -65 15 -90 26 -43 19 -44 20 -25 34 21 16 20 17 -27 45 -10 5 -18 14
-18 19 0 17 172 140 196 140 15 0 26 -9 33 -27z m1081 -160 c0 -5 -37 -19 -82
-32 -88 -27 -167 -74 -212 -127 -60 -72 -93 -206 -66 -269 7 -15 9 -10 9 25 1
35 7 50 32 76 l31 32 85 -34 c47 -18 93 -39 102 -47 9 -8 30 -19 46 -25 17 -5
38 -13 47 -17 16 -6 17 -3 12 24 -4 20 -3 31 5 31 6 0 11 -6 11 -12 0 -25 58
-133 84 -157 33 -31 33 -25 0 33 -15 26 -24 49 -21 52 2 3 22 -17 43 -43 22
-26 86 -94 143 -151 93 -92 115 -108 205 -152 185 -88 365 -130 562 -130 89 0
148 15 140 35 -3 8 12 19 38 29 52 20 60 20 76 1 7 -8 24 -15 39 -15 15 0 79
-15 143 -33 94 -28 125 -33 167 -27 28 3 57 12 63 18 13 13 29 16 27 5 -3 -20
2 -34 11 -28 6 3 10 34 11 68 1 102 21 30 22 -78 1 -71 -4 -102 -22 -148 -13
-32 -26 -56 -29 -52 -3 3 -5 41 -3 84 1 46 -2 82 -8 86 -13 8 -55 -14 -156
-82 l-81 -53 -74 19 c-84 21 -229 46 -234 40 -2 -2 3 -62 11 -132 13 -116 13
-130 -1 -152 -15 -23 -23 -25 -91 -25 -287 0 -756 157 -1045 350 -122 81 -309
267 -366 365 -47 81 -94 214 -94 267 0 172 135 327 325 374 59 14 95 17 95 7z
m-470 -78 c8 -9 10 -28 6 -50 -7 -33 7 -51 17 -22 5 16 33 -6 40 -34 4 -14 -2
-23 -23 -34 -16 -8 -36 -15 -44 -15 -9 0 -19 -12 -22 -27 -11 -46 -23 -53 -84
-53 -45 0 -61 4 -76 21 -10 12 -54 41 -96 66 -43 25 -78 48 -78 51 1 4 18 26
39 49 27 30 41 39 49 31 6 -6 18 -7 29 -3 10 4 27 7 38 6 11 0 40 5 65 13 60
20 124 20 140 1z m-928 -87 c18 -15 31 -48 19 -48 -13 0 -61 40 -61 51 0 13
23 11 42 -3z m72 -34 c9 -3 16 -13 16 -21 0 -20 -34 -12 -38 10 -4 19 -1 20
22 11z m171 -45 c79 -2 108 -12 130 -46 11 -16 25 -23 48 -23 17 0 49 -6 70
-14 31 -10 35 -15 21 -20 -16 -6 -50 -3 -200 20 -17 2 -45 18 -62 34 -19 18
-47 32 -72 36 -22 4 -40 11 -40 16 0 5 8 7 18 4 9 -3 48 -6 87 -7z m3041 -69
c42 -26 69 -93 61 -151 -7 -53 -51 -140 -91 -177 -86 -83 -281 -142 -488 -150
-98 -3 -138 -1 -138 7 0 7 35 11 108 11 94 1 111 3 145 24 l38 24 -66 7 c-37
4 -65 8 -63 10 2 2 46 10 98 19 211 36 321 96 343 188 9 33 -7 77 -36 101
l-22 18 25 -3 c14 -1 31 1 37 5 7 4 22 3 33 -3 33 -18 25 8 -14 45 -50 46 -31
62 30 25z m-122 -131 c43 -34 27 -88 -39 -129 -45 -28 -60 -25 -84 14 l-21 34
52 51 c29 28 56 51 59 51 4 0 18 -9 33 -21z m-3298 -176 c44 -20 80 -38 82
-39 2 -1 -33 -116 -77 -254 -45 -139 -81 -259 -81 -267 0 -12 8 -14 33 -9 96
17 579 76 586 72 4 -3 14 -33 20 -67 7 -33 15 -67 17 -74 5 -12 -127 -40 -631
-135 -284 -53 -315 -57 -315 -47 0 45 270 857 285 857 1 0 38 -17 81 -37z
m502 -139 c105 -15 122 -20 117 -34 -4 -14 19 -28 114 -70 90 -39 121 -57 124
-74 3 -11 13 -79 23 -151 9 -71 20 -134 24 -138 4 -4 60 50 124 122 64 71 122
128 129 126 7 -3 68 -18 137 -35 69 -17 133 -33 143 -36 13 -4 17 0 17 20 0
24 3 22 102 -37 100 -61 102 -63 115 -112 14 -57 17 -109 5 -101 -10 6 -479
126 -493 126 -5 0 -91 -92 -191 -205 -100 -113 -184 -202 -188 -198 -3 5 -11
35 -17 68 -6 33 -28 151 -49 263 l-38 203 -225 110 c-124 60 -227 112 -230
115 -3 3 10 19 29 35 39 33 22 33 228 3z m2675 -428 l-6 -105 67 -72 c48 -52
63 -75 54 -80 -7 -4 -44 -14 -82 -20 -68 -13 -69 -14 -85 -53 -9 -23 -28 -66
-42 -96 l-26 -55 -59 93 -59 93 -113 -6 c-89 -4 -112 -3 -106 7 4 7 32 48 61
90 l54 78 -26 86 c-14 47 -25 88 -22 90 2 2 50 -10 108 -26 57 -17 109 -30
116 -30 6 0 47 25 90 55 43 30 79 54 80 55 2 0 0 -47 -4 -104z"/>
<path d="M3362 4283 c-50 -44 -66 -123 -59 -301 7 -172 35 -272 98 -352 37
-47 137 -116 149 -103 3 3 -1 8 -9 11 -20 7 -90 72 -102 94 -18 33 -29 180
-22 287 5 87 10 108 28 129 19 22 25 24 38 13 14 -11 16 -7 14 31 -2 37 1 43
19 46 25 4 45 -18 90 -99 27 -49 34 -57 30 -34 -10 65 -49 146 -92 194 -26 29
-42 55 -39 64 8 20 -37 47 -78 47 -21 0 -44 -9 -65 -27z"/>
<path d="M3756 3980 c27 -193 22 -324 -12 -318 -19 4 -79 -105 -71 -126 11
-28 60 -3 93 46 49 73 59 153 35 271 -11 52 -27 109 -35 128 l-15 34 5 -35z"/>
<path d="M3745 3488 c-29 -16 -31 -18 -18 -26 7 -4 30 -47 52 -95 23 -49 45
-86 50 -83 5 3 25 -27 45 -67 20 -39 36 -67 36 -60 0 28 -124 336 -136 340 -5
1 -18 -3 -29 -9z"/>
<path d="M2456 3791 c-18 -7 -18 -8 -2 -14 10 -4 28 -7 40 -7 12 0 32 -7 45
-16 18 -13 22 -23 17 -45 -7 -34 -2 -35 31 -9 31 24 76 26 97 4 19 -18 20 -36
5 -51 -9 -9 1 -11 41 -7 59 5 80 -6 80 -42 0 -21 -5 -24 -40 -24 -29 0 -42 -5
-50 -19 -15 -30 -12 -34 12 -17 29 21 68 20 97 -1 18 -12 23 -13 19 -2 -8 21
10 49 32 49 10 0 32 -11 48 -25 17 -14 33 -25 37 -25 14 0 -9 47 -39 78 -27
30 -36 33 -70 29 -35 -5 -43 -1 -86 39 -48 44 -103 74 -140 74 -11 0 -37 9
-57 20 -38 20 -83 25 -117 11z"/>
<path d="M2894 2748 c-58 -39 -100 -107 -121 -196 -14 -53 -14 -74 -4 -129 23
-123 103 -259 210 -356 150 -135 420 -261 675 -313 384 -79 621 -9 686 204 11
35 20 88 20 116 0 60 -24 139 -48 158 -14 11 -15 10 -8 -7 5 -11 11 -43 13
-71 6 -58 -17 -117 -44 -112 -8 2 -41 48 -72 103 -32 55 -78 122 -102 149 -84
95 -253 205 -411 267 -78 30 -69 15 14 -24 108 -50 214 -122 297 -201 161
-155 232 -293 207 -404 -17 -77 -69 -122 -165 -143 -69 -14 -76 -5 -12 16 63
21 68 38 6 20 -68 -21 -249 -29 -325 -15 -59 11 -216 68 -208 76 2 1 43 -6 91
-16 87 -19 172 -16 172 5 0 13 -104 65 -131 65 -36 0 -115 28 -138 48 -11 11
-34 22 -49 26 -38 9 -202 162 -202 189 0 13 10 26 25 34 31 15 38 9 17 -15
-15 -17 -13 -21 43 -75 42 -39 68 -57 86 -57 14 0 49 -7 78 -15 42 -12 54 -21
63 -45 6 -17 19 -33 28 -36 24 -10 91 9 88 24 -2 7 5 12 15 12 30 0 59 -28 66
-65 l7 -35 67 0 c96 0 110 6 118 47 5 26 2 39 -13 56 -11 12 -27 39 -37 59
-14 32 -23 39 -58 44 -51 9 -111 58 -103 85 4 11 2 19 -5 19 -6 0 -8 5 -5 10
19 31 -48 83 -148 115 l-42 13 47 1 c53 1 168 -37 201 -66 36 -32 69 -41 95
-27 24 12 24 12 -20 41 -56 37 -103 55 -153 58 -56 4 -146 29 -144 40 3 15
-50 42 -141 71 -47 15 -80 28 -74 31 6 2 79 -10 163 -27 173 -34 164 -33 156
-21 -3 6 -44 22 -90 36 -47 15 -89 34 -94 42 -8 16 -101 52 -136 54 -16 0 -15
2 7 10 17 7 45 7 80 0 64 -11 73 -6 25 14 -53 22 -219 38 -325 31 -88 -6 -211
-41 -236 -66 -20 -20 -26 -9 -25 43 1 48 5 55 45 95 53 50 44 54 -22 10z m356
-128 c0 -6 -29 -10 -67 -9 -47 0 -62 3 -48 9 28 12 115 12 115 0z m-111 -116
c40 -8 40 -24 -1 -24 -33 0 -68 -24 -68 -47 0 -10 13 -12 58 -7 31 3 63 8 70
10 8 2 31 1 53 -2 29 -5 37 -10 29 -19 -14 -17 -2 -25 44 -26 23 0 59 -6 81
-13 37 -12 31 -13 -85 -14 -122 -1 -180 -11 -180 -32 0 -5 -7 -10 -15 -10 -9
0 -15 -6 -13 -12 3 -15 -47 -68 -64 -68 -9 0 -9 -3 0 -12 7 -7 12 -20 12 -31
0 -29 88 -107 183 -162 48 -27 87 -53 87 -57 0 -7 -114 33 -154 54 -12 6 -43
27 -71 46 l-50 35 45 -48 45 -48 -35 19 c-61 33 -174 154 -208 223 -34 68 -39
105 -20 146 16 34 25 31 21 -7 -2 -18 0 -39 5 -46 15 -22 51 7 62 49 10 35 48
71 100 96 31 14 31 14 69 7z"/>
<path d="M786 4543 c-3 -8 -6 -56 -6 -107 l0 -92 -44 -52 c-54 -63 -84 -104
-88 -121 -2 -7 29 -22 81 -39 l84 -27 24 -70 c28 -86 54 -145 63 -145 3 0 37
42 74 94 l68 94 56 10 c31 6 78 14 105 18 26 3 47 10 47 14 0 4 -18 46 -40 93
l-40 86 24 81 c13 44 20 83 16 85 -4 2 -52 -3 -106 -12 l-99 -16 -107 61 c-84
48 -108 57 -112 45z m129 -123 c38 -27 74 -50 79 -50 5 0 40 9 78 21 39 11 72
18 74 16 3 -3 -7 -31 -21 -62 l-25 -58 40 -61 40 -61 -38 -7 c-20 -4 -55 -7
-77 -7 -39 -1 -43 -4 -94 -76 -30 -41 -57 -75 -60 -75 -4 0 -15 36 -26 81 -21
89 -26 94 -103 105 -29 3 -52 8 -52 10 0 1 25 27 56 56 l56 53 -4 83 c-2 45
-2 82 2 82 3 0 37 -22 75 -50z"/>
</g>
</svg>
